<svg width="512" height="512" viewBox="0 0 512 512" fill="none" xmlns="http://www.w3.org/2000/svg">
<path fill-rule="evenodd" clip-rule="evenodd" d="M480 256C480 251.757 478.314 247.687 475.314 244.686C472.313 241.686 468.243 240 464 240H86.624L187.328 139.328C188.816 137.84 189.996 136.074 190.801 134.131C191.606 132.187 192.02 130.104 192.02 128C192.02 125.896 191.606 123.813 190.801 121.869C189.996 119.926 188.816 118.16 187.328 116.672C185.84 115.184 184.074 114.004 182.131 113.199C180.187 112.394 178.104 111.98 176 111.98C173.896 111.98 171.813 112.394 169.869 113.199C167.926 114.004 166.16 115.184 164.672 116.672L36.672 244.672C35.182 246.158 33.9998 247.924 33.1932 249.868C32.3866 251.812 31.9714 253.895 31.9714 256C31.9714 258.105 32.3866 260.188 33.1932 262.132C33.9998 264.076 35.182 265.842 36.672 267.328L164.672 395.328C166.16 396.816 167.926 397.996 169.869 398.801C171.813 399.606 173.896 400.02 176 400.02C178.104 400.02 180.187 399.606 182.131 398.801C184.074 397.996 185.84 396.816 187.328 395.328C188.816 393.84 189.996 392.074 190.801 390.131C191.606 388.187 192.02 386.104 192.02 384C192.02 381.896 191.606 379.813 190.801 377.869C189.996 375.926 188.816 374.16 187.328 372.672L86.624 272H464C468.243 272 472.313 270.314 475.314 267.314C478.314 264.313 480 260.243 480 256Z" fill="black"/>
</svg>
