<svg width="512" height="512" viewBox="0 0 512 512" fill="none" xmlns="http://www.w3.org/2000/svg">
<path d="M256 32C132.3 32 32 132.3 32 256C32 379.7 132.3 480 256 480C379.7 480 480 379.7 480 256C480 132.3 379.7 32 256 32ZM256 442C153.3 442 70 358.7 70 256C70 153.3 153.3 70 256 70C358.7 70 442 153.3 442 256C442 358.7 358.7 442 256 442Z" fill="black"/>
<path d="M232 168C232 174.365 234.529 180.47 239.029 184.971C243.53 189.471 249.635 192 256 192C262.365 192 268.47 189.471 272.971 184.971C277.471 180.47 280 174.365 280 168C280 161.635 277.471 155.53 272.971 151.029C268.47 146.529 262.365 144 256 144C249.635 144 243.53 146.529 239.029 151.029C234.529 155.53 232 161.635 232 168ZM268 224H244C241.8 224 240 225.8 240 228V364C240 366.2 241.8 368 244 368H268C270.2 368 272 366.2 272 364V228C272 225.8 270.2 224 268 224Z" fill="black"/>
</svg>
