<svg width="512" height="512" viewBox="0 0 512 512" fill="none" xmlns="http://www.w3.org/2000/svg">
<path d="M213.333 384C251.199 383.992 287.974 371.316 317.803 347.989L411.584 441.771L441.749 411.605L347.968 317.824C371.307 287.993 383.991 251.209 384 213.333C384 119.232 307.435 42.6667 213.333 42.6667C119.232 42.6667 42.6666 119.232 42.6666 213.333C42.6666 307.435 119.232 384 213.333 384ZM213.333 85.3333C283.925 85.3333 341.333 142.741 341.333 213.333C341.333 283.925 283.925 341.333 213.333 341.333C142.741 341.333 85.3333 283.925 85.3333 213.333C85.3333 142.741 142.741 85.3333 213.333 85.3333Z" fill="black"/>
</svg>
